
<svg width="640px" height="448px" viewBox="0 0 640 448" version="1.1" xmlns="http://www.w3.org/2000/svg" xmlns:xlink="http://www.w3.org/1999/xlink">
    <g id="Page-1" stroke="none" stroke-width="1" fill="none" fill-rule="evenodd">
        <g id="cloud-solid" fill="#FFFFFF" fill-rule="nonzero" stroke="#979797" stroke-width="40">
            <path d="M256,20 C281.484866,20 305.36853,26.7894649 325.944128,38.686819 C347.267031,51.0162839 365.040106,68.8176716 377.37749,90.1965318 C381.6644,97.6251116 385.248955,105.405808 388.102714,113.429441 C393.149116,106.87575 399.170132,101.286083 405.84438,96.8073114 C417.866245,88.7400071 432.420156,84 448,84 C468.979167,84 487.978043,92.512314 501.732864,106.267136 C515.487686,120.021957 524,139.020833 524,160 C524,169.676669 522.176118,178.956856 518.924106,187.443816 L518.924106,187.443816 L510.464501,209.52132 L533.638952,214.203829 C558.490444,219.225192 580.239145,232.826857 595.699546,251.759809 C610.88944,270.361495 620,294.125178 620,320 C620,349.826562 607.913837,376.826892 588.370364,396.370364 C568.826892,415.913837 541.826563,428 512,428 L512,428 L144,428 C109.770833,428 78.7719573,414.112686 56.3296356,391.670364 C33.887314,369.228043 20,338.229167 20,304 C20,277.341127 28.4079616,252.646964 42.7190932,232.429887 C57.4374418,211.637542 78.3849671,195.568519 102.837014,186.966638 L102.837014,186.966638 L116.731445,182.078776 L116.186297,167.359767 C116.095435,164.906511 116,162.453312 116,160 C116,121.325 131.660473,86.3237987 156.992136,60.9921356 C182.323799,35.6604726 217.325,20 256,20 Z" id="Path"></path>
        </g>
    </g>
</svg>