<?xml version="1.0" encoding="utf-8"?>
<!-- Svg Vector Icons : http://www.onlinewebfonts.com/icon -->
<!DOCTYPE svg PUBLIC "-//W3C//DTD SVG 1.1//EN" "http://www.w3.org/Graphics/SVG/1.1/DTD/svg11.dtd">
<svg version="1.1" xmlns="http://www.w3.org/2000/svg" xmlns:xlink="http://www.w3.org/1999/xlink" x="0px" y="0px" viewBox="0 0 1000 1000" enable-background="new 0 0 1000 1000" xml:space="preserve">
<metadata> Svg Vector Icons : http://www.onlinewebfonts.com/icon </metadata>
<g><path d="M500,10C229.8,10,10,229.8,10,500s219.8,490,490,490c270.2,0,490-219.8,490-490C990,229.8,770.2,10,500,10z M500,938.1C258.4,938.1,61.9,741.6,61.9,500C61.9,258.4,258.4,61.9,500,61.9c241.6,0,438.1,196.5,438.1,438.1C938.1,741.6,741.6,938.1,500,938.1z"/><path d="M494,245.8H341v503h146.8c70,0,124.8-19.7,164.4-59.2c39.6-39.5,59.4-92.2,59.4-158v-68.1c0-65.4-19.6-118-58.7-157.9C613.8,265.7,560.8,245.8,494,245.8z M647.4,531.5c0,50.4-13.2,90.7-39.7,120.7c-26.5,30.1-66.4,45.1-119.9,45.1h-82.9V297.6H494c50.2,0,88.3,14.7,114.3,44c26,29.4,39,69.7,39,121.1V531.5z"/></g>
</svg>