<?xml version="1.0" encoding="utf-8"?>
<!-- Svg Vector Icons : http://www.onlinewebfonts.com/icon -->
<!DOCTYPE svg PUBLIC "-//W3C//DTD SVG 1.1//EN" "http://www.w3.org/Graphics/SVG/1.1/DTD/svg11.dtd">
<svg version="1.1" xmlns="http://www.w3.org/2000/svg" xmlns:xlink="http://www.w3.org/1999/xlink" x="0px" y="0px" viewBox="0 0 1000 1000" enable-background="new 0 0 1000 1000" xml:space="preserve">
<metadata> Svg Vector Icons : http://www.onlinewebfonts.com/icon </metadata>
<g><path d="M10,13V987h980V13H10z M698.4,787.8l-12.8-242c-3.8-78.2-8.3-166.8-7.5-238.2h-2.3C658.6,375.3,636,448.9,612,521.8l-85.7,260.8h-65.4L382,527.1c-23.3-75.1-43.6-150.3-57.9-219.4h-2.3c-1.5,71.4-6,162.3-10.5,242.7l-12.8,237.5h-81.2l39.1-575.6h108.2l81.2,253.3c21,70.6,38.3,134.5,52.6,197.6h2.3c14.3-61.6,32.3-127,54.9-198.4L639,212.2h109l34.6,575.6H698.4z"/></g>
</svg>