
<svg width="287px" height="297px" viewBox="0 0 287 297" version="1.1" xmlns="http://www.w3.org/2000/svg" xmlns:xlink="http://www.w3.org/1999/xlink">
    <g id="Page-1" stroke="none" stroke-width="1" fill="none" fill-rule="evenodd">
        <g id="stars" transform="translate(0.256000, 0.000000)" fill="#FCFCFC" fill-rule="nonzero">
            <path d="M49.837,110.761 L56.381,128.504 C56.627,129.172 57.263,129.615 57.974,129.615 C58.685,129.615 59.321,129.172 59.567,128.504 L66.111,110.761 C71.408,96.397 82.731,85.074 97.094,79.778 L114.837,73.234 C115.504,72.988 115.947,72.352 115.947,71.641 C115.947,70.93 115.504,70.294 114.837,70.048 L97.093,63.504 C82.73,58.207 71.407,46.885 66.111,32.522 L59.567,14.779 C59.321,14.112 58.685,13.669 57.974,13.669 C57.263,13.669 56.627,14.112 56.381,14.779 L49.837,32.522 C44.54,46.885 33.218,58.207 18.854,63.504 L1.11,70.048 C0.443,70.294 0,70.93 0,71.641 C0,72.352 0.443,72.988 1.11,73.234 L18.853,79.778 C33.217,85.074 44.54,96.396 49.837,110.761 Z" id="Path"></path>
            <path d="M193.692,185.703 L175.95,179.16 C161.586,173.863 150.263,162.541 144.967,148.178 L138.423,130.435 C138.177,129.768 137.541,129.325 136.83,129.325 C136.119,129.325 135.483,129.768 135.237,130.435 L128.693,148.177 C123.396,162.541 112.073,173.863 97.71,179.16 L79.967,185.703 C79.3,185.949 78.857,186.585 78.857,187.296 C78.857,188.007 79.3,188.643 79.967,188.889 L97.711,195.434 C112.074,200.731 123.396,212.053 128.693,226.416 L135.237,244.16 C135.483,244.827 136.119,245.27 136.83,245.27 C137.541,245.27 138.177,244.827 138.423,244.16 L144.967,226.416 C150.264,212.053 161.586,200.73 175.949,195.434 L193.693,188.889 C194.36,188.643 194.803,188.007 194.803,187.296 C194.803,186.585 194.359,185.949 193.692,185.703 Z" id="Path"></path>
            <path d="M285.522,109.811 L273.463,105.364 C263.702,101.764 256.007,94.069 252.407,84.308 L247.96,72.25 C247.792,71.797 247.36,71.495 246.877,71.495 C246.394,71.495 245.962,71.797 245.794,72.25 L241.348,84.307 C237.748,94.069 230.053,101.764 220.291,105.364 L208.233,109.811 C207.78,109.978 207.478,110.41 207.478,110.893 C207.478,111.376 207.78,111.809 208.233,111.976 L220.292,116.422 C230.053,120.023 237.748,127.718 241.348,137.479 L245.794,149.539 C245.962,149.992 246.394,150.294 246.877,150.294 C247.36,150.294 247.792,149.992 247.96,149.539 L252.407,137.479 C256.007,127.717 263.701,120.023 273.463,116.423 L285.522,111.976 C285.975,111.809 286.277,111.376 286.277,110.893 C286.277,110.41 285.975,109.978 285.522,109.811 Z" id="Path"></path>
            <path d="M256.311,268.552 L247.899,265.449 C241.09,262.938 235.723,257.571 233.212,250.763 L230.109,242.353 C229.993,242.037 229.691,241.827 229.354,241.827 C229.017,241.827 228.715,242.037 228.599,242.353 L225.496,250.763 C222.985,257.572 217.618,262.939 210.81,265.449 L202.398,268.552 C202.082,268.668 201.872,268.97 201.872,269.307 C201.872,269.644 202.082,269.946 202.398,270.062 L210.809,273.165 C217.619,275.676 222.986,281.044 225.497,287.853 L228.6,296.264 C228.716,296.58 229.018,296.79 229.355,296.79 C229.692,296.79 229.994,296.58 230.11,296.264 L233.213,287.853 C235.724,281.044 241.091,275.676 247.901,273.165 L256.312,270.062 C256.628,269.946 256.838,269.644 256.838,269.307 C256.838,268.97 256.628,268.668 256.311,268.552 Z" id="Path"></path>
            <path d="M194.277,26.726 L185.865,23.624 C179.056,21.113 173.689,15.746 171.179,8.937 L168.076,0.527 C167.96,0.21 167.658,0 167.321,0 C166.984,0 166.682,0.21 166.566,0.526 L163.464,8.935 C160.953,15.744 155.585,21.112 148.776,23.623 L140.364,26.725 C140.048,26.841 139.838,27.143 139.838,27.48 C139.838,27.817 140.048,28.119 140.364,28.235 L148.775,31.338 C155.585,33.849 160.953,39.217 163.464,46.027 L166.566,54.437 C166.682,54.753 166.984,54.963 167.321,54.963 C167.658,54.963 167.96,54.753 168.076,54.437 L171.179,46.026 C173.69,39.216 179.057,33.849 185.867,31.339 L194.278,28.236 C194.594,28.12 194.804,27.818 194.804,27.481 C194.804,27.144 194.594,26.842 194.277,26.726 Z" id="Path"></path>
            <path d="M91.103,251.26 L80.523,247.36 C71.959,244.202 65.207,237.45 62.047,228.885 L58.146,218.305 C57.999,217.908 57.62,217.643 57.196,217.643 C56.772,217.643 56.393,217.908 56.246,218.305 L52.345,228.884 C49.187,237.449 42.435,244.201 33.869,247.36 L23.291,251.26 C22.892,251.406 22.629,251.786 22.629,252.21 C22.629,252.634 22.893,253.014 23.291,253.16 L33.87,257.062 C42.434,260.22 49.186,266.972 52.345,275.537 L56.246,286.117 C56.393,286.515 56.772,286.779 57.196,286.779 C57.62,286.779 58,286.515 58.146,286.117 L62.048,275.536 C65.206,266.972 71.957,260.221 80.522,257.062 L91.103,253.16 C91.501,253.014 91.765,252.634 91.765,252.21 C91.765,251.786 91.502,251.406 91.103,251.26 Z" id="Path"></path>
        </g>
    </g>
</svg>