<?xml version="1.0" standalone="no"?>
<!DOCTYPE svg PUBLIC "-//W3C//DTD SVG 20010904//EN"
 "http://www.w3.org/TR/2001/REC-SVG-20010904/DTD/svg10.dtd">
<svg version="1.0" xmlns="http://www.w3.org/2000/svg"
 width="700.000000pt" height="700.000000pt" viewBox="0 0 700.000000 700.000000"
 preserveAspectRatio="xMidYMid meet">
<metadata>
Created by potrace 1.11, written by Peter Selinger 2001-2013
</metadata>
<g transform="translate(0.000000,700.000000) scale(0.100000,-0.100000)"
fill="#000000" stroke="none">
<path d="M3209 6926 c-2 -2 -31 -7 -64 -11 -79 -8 -125 -15 -150 -20 -11 -2
-42 -7 -70 -10 -27 -4 -79 -14 -115 -22 -36 -8 -76 -17 -90 -19 -53 -10 -329
-94 -415 -127 -290 -110 -559 -253 -810 -430 -55 -39 -102 -73 -105 -77 -3 -3
-18 -16 -35 -29 -101 -78 -355 -323 -466 -451 -290 -333 -531 -771 -666 -1210
-35 -115 -86 -314 -97 -380 -3 -19 -8 -46 -10 -60 -35 -186 -40 -261 -41 -585
0 -251 7 -400 21 -467 2 -13 7 -41 10 -63 11 -77 65 -311 101 -435 69 -238
163 -466 293 -705 40 -74 155 -258 190 -305 14 -19 52 -69 82 -110 85 -113
136 -169 322 -355 178 -177 318 -293 496 -412 106 -70 281 -173 355 -207 22
-11 76 -36 120 -56 174 -82 427 -170 600 -211 50 -11 101 -25 115 -29 14 -5
45 -12 70 -16 63 -9 87 -13 150 -25 106 -19 208 -24 495 -24 265 0 420 6 485
20 14 3 52 10 85 15 33 6 92 17 130 26 39 8 79 16 90 18 42 9 235 66 330 99
316 108 597 250 855 431 47 33 87 62 90 65 3 3 34 28 70 55 307 234 622 596
839 966 101 173 240 488 308 700 31 99 92 348 109 445 2 17 9 55 14 85 19 109
25 219 25 495 0 250 -9 457 -20 475 -3 4 -7 27 -10 51 -28 239 -167 687 -297
959 -83 174 -254 460 -335 560 -6 8 -42 53 -79 100 -37 47 -77 96 -88 109 -38
44 -320 325 -361 360 -62 53 -282 221 -290 221 -3 0 -30 18 -60 40 -30 22 -56
40 -58 40 -3 0 -47 25 -98 55 -192 114 -429 219 -664 297 -121 39 -294 86
-350 95 -16 2 -37 6 -45 9 -8 3 -28 8 -45 10 -16 3 -52 9 -80 14 -47 9 -76 13
-220 26 -76 7 -610 16 -616 10z m536 -390 c60 -4 112 -9 115 -11 3 -2 28 -6
56 -9 227 -27 548 -116 794 -223 653 -282 1193 -792 1508 -1423 91 -181 99
-201 153 -350 61 -172 126 -431 143 -575 4 -27 9 -66 11 -85 25 -197 25 -623
0 -720 -2 -8 -7 -42 -10 -75 -9 -90 -59 -315 -100 -450 -59 -197 -158 -429
-254 -597 -11 -21 -30 -54 -41 -73 -72 -127 -243 -362 -340 -466 -248 -266
-491 -467 -720 -597 -19 -11 -63 -36 -98 -56 -233 -132 -582 -260 -862 -315
-95 -19 -101 -20 -159 -27 -31 -3 -59 -8 -62 -10 -28 -16 -503 -25 -644 -12
-454 44 -870 175 -1250 394 -113 65 -218 134 -223 146 -2 4 -8 8 -14 8 -24 0
-286 219 -401 335 -197 198 -382 440 -499 655 -20 36 -48 87 -63 114 -127 234
-273 694 -300 946 -2 25 -6 54 -9 65 -19 94 -26 456 -13 620 11 123 33 291 41
304 2 3 7 27 10 52 3 26 25 113 47 195 189 691 603 1278 1201 1703 48 33 89
61 92 61 3 0 24 13 48 29 164 110 453 243 698 320 93 30 276 76 335 84 17 3
57 10 90 16 82 14 122 19 245 27 58 3 106 7 107 8 5 4 268 -2 368 -8z"/>
<path d="M4194 4579 c-116 -19 -235 -76 -362 -177 -74 -57 -212 -191 -212
-204 0 -4 -6 -8 -13 -8 -7 0 -20 19 -30 42 -51 117 -170 235 -292 289 -125 55
-348 62 -493 15 -77 -25 -205 -101 -259 -153 -11 -10 -39 -36 -64 -57 -24 -22
-60 -54 -79 -73 l-36 -33 -1 119 c-2 137 -17 186 -57 197 -63 16 -234 6 -274
-15 -17 -9 -18 -58 -16 -908 2 -1218 0 -1164 47 -1177 30 -8 217 -8 257 0 21
5 35 15 42 33 9 21 19 771 18 1348 l0 73 103 103 c169 172 303 257 403 257
208 0 332 -93 388 -290 31 -112 36 -224 41 -915 2 -341 8 -551 14 -568 15 -39
51 -50 171 -51 89 -1 110 2 140 20 l35 20 2 715 2 714 103 99 c228 219 281
249 433 250 93 0 105 -2 166 -31 98 -47 155 -123 193 -253 31 -109 36 -211 41
-900 2 -341 8 -566 14 -582 15 -39 41 -49 141 -53 98 -4 147 4 187 30 24 16
25 19 9 30 -12 9 -18 31 -21 77 -5 67 -13 709 -15 1177 l-2 285 -30 85 c-51
149 -86 210 -168 292 -139 139 -339 207 -526 178z"/>
</g>
</svg>
