<?xml version="1.0" standalone="no"?>
<!DOCTYPE svg PUBLIC "-//W3C//DTD SVG 20010904//EN"
 "http://www.w3.org/TR/2001/REC-SVG-20010904/DTD/svg10.dtd">
<svg version="1.0" xmlns="http://www.w3.org/2000/svg"
 width="982.000000pt" height="982.000000pt" viewBox="0 0 982.000000 982.000000"
 preserveAspectRatio="xMidYMid meet">
<metadata>
Created by potrace 1.11, written by Peter Selinger 2001-2013
</metadata>
<g transform="translate(0.000000,982.000000) scale(0.100000,-0.100000)"
fill="#000000" stroke="none">
<path d="M4600 9813 c-151 -13 -478 -58 -615 -84 -679 -128 -1355 -419 -1944
-837 -186 -132 -344 -266 -559 -476 -283 -277 -444 -467 -629 -743 -430 -639
-693 -1324 -814 -2118 -17 -118 -22 -202 -26 -531 -6 -450 3 -633 48 -893 158
-933 565 -1797 1157 -2459 135 -151 387 -400 517 -511 682 -585 1569 -981
2506 -1121 330 -49 1035 -46 1369 6 713 110 1411 374 1988 751 535 350 1027
836 1383 1365 170 252 365 619 479 902 146 364 269 825 325 1226 22 151 32
829 16 1050 -41 590 -265 1333 -575 1907 -655 1214 -1793 2092 -3148 2428
-195 48 -399 87 -538 104 -170 20 -827 44 -940 34z m785 -582 c870 -102 1648
-433 2315 -986 129 -107 360 -334 490 -482 858 -976 1230 -2309 1005 -3602
-182 -1048 -746 -1995 -1584 -2661 -560 -445 -1234 -750 -1931 -874 -289 -51
-410 -61 -770 -61 -360 0 -481 10 -770 61 -1558 277 -2855 1401 -3360 2913
-331 992 -285 2105 126 3068 474 1109 1401 1985 2536 2397 379 137 800 223
1223 250 145 9 556 -4 720 -23z"/>
<path d="M5834 6441 c-213 -52 -422 -187 -657 -424 -125 -126 -127 -128 -137
-103 -6 14 -14 37 -20 51 -34 87 -145 224 -245 302 -147 115 -280 160 -507
170 -340 15 -532 -68 -863 -373 l-122 -112 -7 169 c-10 275 -19 285 -246 283
-115 -1 -156 -5 -200 -20 l-55 -19 -3 -1255 c-1 -690 2 -1351 7 -1469 11 -276
-7 -255 225 -259 191 -4 248 5 268 41 15 27 26 586 27 1436 l1 594 55 67 c128
156 348 341 493 413 77 38 94 42 171 45 238 9 405 -84 500 -279 95 -198 101
-272 110 -1364 6 -625 11 -878 19 -898 21 -50 67 -62 242 -62 145 0 158 2 205
25 l50 25 3 1021 2 1021 138 134 c177 174 315 288 400 330 l67 34 161 0 161 0
86 -44 c108 -54 151 -99 211 -222 48 -98 70 -169 86 -285 6 -38 15 -472 20
-964 6 -492 14 -926 19 -963 11 -79 22 -91 94 -106 63 -14 256 -14 312 0 23 6
58 24 76 40 l34 29 -24 18 c-23 18 -24 28 -32 163 -4 79 -10 567 -14 1084 l-7
940 -52 151 c-65 189 -119 285 -216 385 -128 131 -284 216 -462 253 -103 21
-281 20 -374 -3z"/>
</g>
</svg>
